<?xml version="1.0" encoding="utf-8"?>
<!-- Generator: Adobe Illustrator 16.0.0, SVG Export Plug-In . SVG Version: 6.00 Build 0)  -->
<!DOCTYPE svg PUBLIC "-//W3C//DTD SVG 1.1//EN" "http://www.w3.org/Graphics/SVG/1.1/DTD/svg11.dtd">
<svg version="1.1" id="圖層_1" xmlns="http://www.w3.org/2000/svg" xmlns:xlink="http://www.w3.org/1999/xlink" x="0px" y="0px"
	 width="48.667px" height="231.333px" viewBox="0 0 48.667 231.333" enable-background="new 0 0 48.667 231.333"
	 xml:space="preserve">
<g>
	<path d="M6.066,24.723v-2.68h12.438c0.36-0.84,0.68-1.64,0.96-2.52H9.186v-2.6l10.998,0.04l0.44-2.479H7.226v-2.479h13.518
		l0.04-2.52h6.679c-0.12,0.84-0.2,1.72-0.28,2.56l13.638-0.04v2.479H26.982c-0.12,0.84-0.24,1.64-0.4,2.479l12.558-0.04v2.6H25.983
		c-0.28,0.92-0.64,1.68-1.04,2.56l16.557-0.04v2.68H29.982c3.959,2.64,7.119,3.479,11.838,3.719v0.32
		c-1.48,0.64-2.24,1.08-2.24,2.799c0,0.56,0.28,0.84,0.52,1.36l-0.32,0.24c-1.08-0.2-2.16-0.479-3.199-0.88l-0.52,0.24v13.038
		h-5.759v-1.6H17.664v1.56h-5.719V31.961c-1.92,0.76-3.959,1.32-5.959,1.8l-0.24-0.36c1.04-0.48,2.08-1,3.08-1.56
		c2.879-1.56,5.959-4.6,8.119-7.119H6.066z M31.582,29.882c-2.08-1.56-3.32-2.879-4.64-5.159h-3.839
		c-1.24,1.28-2.599,2.72-4.119,3.719l-2.439,1.6h1.12v0.959h12.678L31.582,29.882z M30.302,36.281v-2.799H17.664v2.799H30.302z
		 M30.302,41.44v-2.72H17.664v2.72H30.302z"/>
	<path d="M15.904,59.405h15.998l1.56-2l6.799,1.28l-1.879,1.88v32.514h-6.319V90.24H15.904v2.919H9.786V57.725h6.119V59.405z
		 M32.062,72.163V62.084H15.904v10.079H32.062z M32.062,87.44V74.882H15.904V87.44H32.062z"/>
	<path fill="#757575" d="M6.546,105.765h4.599v1.44h2.48l1.479-1.44l4.599,0.88l-1.479,1.44c1.72,0.72,5.319,2,5.319,4.359
		c0,1.24-1.16,2-2.279,2c-2.52,0-2.04-2.12-2.52-3.959c-0.28-1.04-0.48-1.12-1.12-2c-0.04,3.679-0.4,5.359-3.439,7.679
		c1.4,1,1.76,1.4,2.64,2.839h2.56l1.64-1.36l4.399,1.08l-1.68,1.24v14.678c0.48,0.6,1,1.24,1.6,1.72c1.76,1.479,5.079,1.6,7.279,1.6
		c3.04,0,6.119-0.28,9.159-0.52l0.12,0.36c-0.68,0.28-2.279,1.04-2.279,1.92c0,0.32,0.16,0.76,0.24,1.12l-0.24,0.32
		c-2.88,0-10.238,0.12-12.958-0.84c-2.24-0.76-3.319-2.6-4.399-4.559c-0.12-0.2-0.479-0.92-0.76-0.92
		c-0.28,0-4.559,5.479-5.279,6.319l-2.04-3.719c1.8-1,3.52-2.08,5.199-3.239v-12.878h-1.76c0,2.759,0.08,5.519,0.08,8.318
		c0,3.24-0.6,4.56-4.079,4.56c-0.2,0-1,0-1.16-0.12c-0.36-0.28,0-1.4-0.6-1.72c-0.24-0.12-0.48-0.24-0.72-0.36v9.398H6.546V105.765z
		 M12.305,131.161c0.72,0,1.12-0.2,1.12-1c0-0.32-0.04-0.68-0.04-1.04c0-2.919,0.2-5.839,0.2-8.758c0-1.88-0.12-2.56-1.16-4.159
		c0.88-1.56,1.16-2.16,1.4-3.959c0.08-0.48,0.16-1.04,0.16-1.56l-0.04-1.04h-2.8v21.396
		C11.505,131.121,11.905,131.161,12.305,131.161z M25.783,111.484l0.64-1.48h-2.84v-2.479l3.839,0.04c0.32-0.72,0.52-1.44,0.76-2.16
		h5.879c-0.32,0.76-0.72,1.44-1.16,2.16l8.039-0.04v2.479h-9.878l-1.12,1.44h8.999v2.439h-3.879v1.8H40.7v2.479H25.423v-2.479h5.799
		v-1.8h-3.879c-0.959,0.76-1.919,1.64-2.959,2.28l-2.16,1.32l-0.28-0.2C23.303,115.483,24.863,113.564,25.783,111.484z
		 M30.342,118.723v1.24h5l1.52-1.4l4.639,1.12l-1.64,1.399v12.758c0,0.56-0.04,1.24-0.32,1.72c-0.64,1.04-2.64,1.36-3.759,1.36
		c-1.96,0-0.84-1.479-2-2.16c-0.44-0.24-2.16-0.64-2.679-0.76l0.12-0.4c0.6,0,1.2,0.04,1.8,0.04c1,0,2.479,0.2,2.479-1.16v-1.92
		h-5.159v5.919h-4.479v-17.757H30.342z M35.501,124.042v-1.64h-5.159v1.64H35.501z M35.501,128.042v-1.56h-5.159v1.56H35.501z"/>
	<path fill="#757575" d="M17.984,155.324h7.199v2.359h-7.679c1.28,0.84,3.119,1.6,3.119,3.359c0,1.24-1.2,2-2.319,2
		c-1.96,0-2.04-1.08-2.4-2.68c-0.16-0.6-0.4-1.16-0.64-1.72c-2.76,2.319-5.719,3.839-9.039,5.199l-0.4-0.36
		c3.52-3.919,4.599-4.919,6.439-10.038h6.839C18.744,154.124,18.424,154.724,17.984,155.324z M8.706,166.162v-2.319h12.078v-2.2
		h2.439c1.92-2.4,3.16-5.199,3.719-8.199h6.959c-0.32,0.64-0.68,1.28-1.08,1.88h8.198v2.359h-8.438c1.24,0.48,3.759,1.44,3.759,3.04
		c0,0.88-0.28,1.12-0.84,1.72l4.08,0.8l-1.4,1.68v3.319h2.839v2.36h-2.839v5.159h-5.439v-0.6h-6.519v2.28h10.918v2.359H26.223v2.04
		H40.58v2.36H26.223v5.239h-5.439v-5.239H6.826v-2.36h13.958v-2.04H8.906v-2.359h11.878v-2.28H8.946l-0.04-2.319h11.878v-2.24H6.426
		v-2.36h14.357v-2.08H8.706z M32.542,163.843l0.84-1.08c-0.28-0.12-0.6-0.2-0.84-0.36c-0.68-0.4-0.959-1.36-1.2-2.04
		c-0.28-0.72-0.64-1.4-1.04-2.04c-1.44,1.28-3.04,2.359-4.719,3.319h0.64v2.2H32.542z M32.742,168.242v-2.08h-6.519v2.08H32.742z
		 M32.742,172.841v-2.24h-6.519v2.24H32.742z"/>
</g>
<g>
	<path fill="#757575" d="M38.335,207.198h-3.15c1.65-2.25,2.15-4.25,2.45-6.25h-2.35v-4.75h4.951
		C40.635,200.747,40.185,203.498,38.335,207.198z"/>
</g>
<g>
	<path fill="#757575" d="M38.335,223.198h-3.15c1.65-2.25,2.15-4.25,2.45-6.25h-2.35v-4.75h4.951
		C40.635,216.747,40.185,219.498,38.335,223.198z"/>
</g>
</svg>
