<?xml version="1.0" encoding="utf-8"?>
<!-- Generator: Adobe Illustrator 16.0.0, SVG Export Plug-In . SVG Version: 6.00 Build 0)  -->
<!DOCTYPE svg PUBLIC "-//W3C//DTD SVG 1.1//EN" "http://www.w3.org/Graphics/SVG/1.1/DTD/svg11.dtd">
<svg version="1.1" id="圖層_1" xmlns="http://www.w3.org/2000/svg" xmlns:xlink="http://www.w3.org/1999/xlink" x="0px" y="0px"
	 width="700px" height="160px" viewBox="0 0 700 160" enable-background="new 0 0 700 160" xml:space="preserve">
<g>
	<path fill="#535353" d="M16.568,19.382h10.063L18.56,78.997c-1.074,7.926-1.61,13.564-1.61,16.916
		c0,6.516,1.787,11.532,5.359,15.049c3.573,3.518,8.617,5.275,15.131,5.275c4.567,0,8.616-0.799,12.145-2.398
		c3.527-1.6,6.551-3.929,9.071-6.986c2.519-3.059,4.31-6.587,5.373-10.588c1.849-6.962,3.443-15.76,4.784-26.394l6.548-50.489
		h10.059l-6.968,52.605l-1.664,12.886c-0.971,5.995-2.126,11.104-3.467,15.328c-1.341,4.226-3.084,7.966-5.229,11.222
		c-2.145,3.258-4.587,5.924-7.325,8.001c-2.739,2.077-6.061,3.717-9.963,4.921c-3.902,1.203-8.272,1.805-13.111,1.805
		c-9.906,0-17.552-2.596-22.938-7.787c-5.386-5.192-8.078-12.083-8.078-20.674c0-2.408,0.149-5.098,0.45-8.069l1.613-12.177
		L16.568,19.382z"/>
	<path fill="#535353" d="M117.998,19.382h10.284L114.487,123.53h-10.284L117.998,19.382z"/>
	<path fill="#535353" d="M206.939,19.382h21.833c13.818,0,24.413,1.854,31.783,5.559s13.313,9.44,17.826,17.204
		c4.514,7.765,6.771,16.628,6.771,26.586c0,10.62-2.555,20.438-7.662,29.453c-5.107,9.017-11.395,15.494-18.859,19.435
		c-7.465,3.941-18.594,5.912-33.385,5.912h-32.103L206.939,19.382z M215.737,29.437l-11.123,83.969h8.941
		c13.769,0,22.894-0.377,27.375-1.133c6.839-1.133,12.59-3.362,17.258-6.69c4.667-3.327,8.663-8.307,11.99-14.938
		c3.326-6.631,4.99-13.865,4.99-21.701c0-8.259-1.875-15.48-5.626-21.664s-8.893-10.809-15.428-13.877
		c-5.568-2.644-14.979-3.965-28.231-3.965H215.737z"/>
	<path fill="#535353" d="M384.99,86.997h-67.256c-0.139,9.158,2.195,16.355,7.003,21.594c4.807,5.24,11.209,7.859,19.206,7.859
		c5.315,0,10.238-1.108,14.769-3.328c4.529-2.218,8.273-5.333,11.232-9.346l7.211,6.019c-3.652,4.769-8.424,8.579-14.318,11.435
		c-5.893,2.855-12.26,4.283-19.101,4.283c-11.834,0-20.721-3.74-26.66-11.222s-8.909-15.896-8.909-25.241
		c0-7.646,1.999-15.01,5.997-22.09s9.349-12.59,16.052-16.531c6.702-3.941,13.959-5.912,21.771-5.912
		c9.661,0,17.657,3.34,23.991,10.019c6.332,6.679,9.498,15.187,9.498,25.523C385.474,81.946,385.312,84.261,384.99,86.997z
		 M376.115,78.359c-0.277-7.247-2.705-13.118-7.281-17.612c-4.576-4.495-10.331-6.743-17.264-6.743
		c-7.535,0-14.18,2.165-19.935,6.495s-9.834,10.283-12.237,17.86H376.115z"/>
	<path fill="#535353" d="M453.085,55.137l-5.27,8.001c-4.256-6.184-9.297-9.275-15.125-9.275c-3.33,0-6.176,1.109-8.533,3.328
		c-2.359,2.219-3.539,4.672-3.539,7.363c0,2.077,0.717,4.06,2.15,5.947c1.387,1.888,4.553,4.46,9.498,7.717
		c7.211,4.768,11.973,8.921,14.283,12.461c2.266,3.588,3.398,7.717,3.398,12.391c0,6.467-2.209,11.823-6.625,16.071
		s-10.162,6.372-17.236,6.372c-9.34,0-17.201-4.224-23.582-12.674l5.893-7.009c5.596,6.938,11.678,10.407,18.246,10.407
		c3.746,0,7.006-1.345,9.781-4.035s4.162-5.806,4.162-9.346c0-2.879-1.039-5.64-3.119-8.283c-1.342-1.699-4.945-4.58-10.814-8.643
		c-6.332-4.439-10.49-8.122-12.48-11.049c-1.99-2.878-2.984-6.134-2.984-9.768c0-5.709,2.104-10.569,6.313-14.58
		c4.207-4.012,9.525-6.018,15.955-6.018c3.791,0,7.225,0.779,10.299,2.336C446.83,48.411,449.941,51.172,453.085,55.137z"/>
	<path fill="#535353" d="M479.765,46.499h9.166l-9.854,77.031h-9.516L479.765,46.499z M487.382,14.78
		c2.125,0,3.951,0.779,5.477,2.336c1.525,1.559,2.289,3.424,2.289,5.594c0,2.219-0.764,4.096-2.289,5.629
		c-1.525,1.534-3.352,2.301-5.477,2.301c-2.174,0-4.012-0.767-5.514-2.301c-1.502-1.533-2.252-3.41-2.252-5.629
		c0-2.17,0.75-4.035,2.252-5.594C483.371,15.56,485.208,14.78,487.382,14.78z"/>
	<path fill="#535353" d="M582.671,46.499h9.477l-8.637,65.207c-1.387,10.526-3.072,17.889-5.061,22.09
		c-2.727,5.807-7.254,10.573-13.584,14.303c-6.33,3.728-13.814,5.593-22.455,5.593c-8.502,0-15.746-1.771-21.729-5.31
		c-5.984-3.541-10.523-8.662-13.619-15.364l8.668-3.187c5.266,9.771,14.16,14.656,26.68,14.656c6.607,0,12.324-1.369,17.15-4.106
		c4.828-2.739,8.281-6.256,10.361-10.552c1.248-2.596,2.518-8.236,3.813-16.924l0.404-3c-8.158,9.084-18.107,13.625-29.846,13.625
		c-10.4,0-18.766-3.244-25.098-9.735c-6.332-6.489-9.498-14.927-9.498-25.312c0-7.646,1.926-14.832,5.779-21.559
		c3.852-6.726,9.158-12.143,15.92-16.248c6.758-4.107,13.621-6.16,20.59-6.16c5.813,0,11.119,1.334,15.918,4
		s9.064,6.879,12.795,12.636L582.671,46.499z M553.929,53.933c-6.318,0-12.188,1.547-17.607,4.638
		c-5.42,3.093-9.617,7.282-12.592,12.567c-2.975,5.287-4.463,11.211-4.463,17.771c0,7.552,2.352,13.641,7.057,18.266
		c4.705,4.627,11.023,6.939,18.957,6.939c9.594,0,17.563-3.21,23.904-9.629c6.342-6.418,9.514-14.512,9.514-24.281
		c0-8.592-2.584-15.117-7.75-19.579C565.783,56.165,560.109,53.933,553.929,53.933z"/>
	<path fill="#535353" d="M622.65,46.499h9.305l-1.553,11.982c7.668-9.31,16.592-13.965,26.77-13.965
		c7.807,0,14.105,2.442,18.891,7.326c4.787,4.883,7.182,11.453,7.182,19.71c0,3.304-0.518,8.851-1.551,16.645l-4.678,35.333H667.5
		l4.68-35.326c1-7.554,1.502-13.131,1.502-16.729c0-5.396-1.602-9.752-4.805-13.066c-3.201-3.314-7.402-4.972-12.602-4.972
		c-5.105,0-9.852,1.345-14.238,4.036c-4.387,2.689-7.785,6.336-10.199,10.938c-2.414,4.601-4.266,11.879-5.557,21.833l-4.318,33.286
		h-9.516L622.65,46.499z"/>
</g>
</svg>
