<?xml version="1.0" encoding="utf-8"?>
<!-- Generator: Adobe Illustrator 16.0.0, SVG Export Plug-In . SVG Version: 6.00 Build 0)  -->
<!DOCTYPE svg PUBLIC "-//W3C//DTD SVG 1.1//EN" "http://www.w3.org/Graphics/SVG/1.1/DTD/svg11.dtd">
<svg version="1.1" id="圖層_1" xmlns="http://www.w3.org/2000/svg" xmlns:xlink="http://www.w3.org/1999/xlink" x="0px" y="0px"
	 width="646.606px" height="51.566px" viewBox="0 0 646.606 51.566" enable-background="new 0 0 646.606 51.566"
	 xml:space="preserve">
<g>
	<path fill="#757575" d="M33,38.909c-3.26,1.678-8.006,2.253-11.65,1.918c-3.356-0.288-7.144-1.391-9.684-3.692
		c-2.493-2.301-3.5-5.513-3.212-9.061h7.096c-0.192,2.493,0.191,4.986,1.63,6.808c1.438,1.918,3.644,2.685,5.993,2.733
		c2.109,0.048,4.314-0.479,5.993-1.534c1.438-0.863,2.301-2.253,2.445-3.691c0.096-1.391-0.479-2.829-1.918-3.74
		c-1.534-0.959-5.226-2.349-8.87-3.5c-2.829-0.863-5.801-2.205-8.246-3.787c-2.685-1.726-3.788-4.699-3.308-7.959
		c0.432-2.876,2.301-5.513,4.89-6.952c2.685-1.534,6.712-2.014,9.781-1.87c3.164,0.192,6.232,1.247,8.534,3.26
		s3.26,4.555,3.404,7.527h-7.047c0.144-1.966-0.192-3.739-1.055-5.082c-0.815-1.247-2.11-2.109-3.979-2.445
		c-1.966-0.384-4.171,0-5.705,1.103c-1.199,0.911-2.014,2.301-2.11,3.644c-0.144,1.343,0.432,2.685,1.966,3.548
		c2.014,1.103,4.555,2.014,7.431,2.876c3.165,0.959,6.664,2.445,9.109,4.124c2.685,1.822,3.691,4.938,3.5,8.006
		C37.794,34.403,35.924,37.375,33,38.909z"/>
	<path fill="#757575" d="M59.707,40.731c-3.356,0.767-7.287-0.144-9.828-2.589v13.424h-6.424V15.561h6.424v2.637
		c2.301-2.157,5.513-3.068,8.678-2.781c3.596,0.336,6.808,2.253,8.582,5.466c2.109,3.788,2.349,9.876,0.336,13.808
		C65.843,37.854,62.919,39.964,59.707,40.731z M61.576,21.842c-0.719-2.445-3.02-3.644-5.369-3.5
		c-2.397,0.144-4.986,1.438-6.329,3.5v12.465c1.534,2.541,4.123,3.788,6.568,3.692c2.206-0.096,4.219-1.343,5.13-3.788
		C62.679,31.238,62.583,25.102,61.576,21.842z"/>
	<path fill="#757575" d="M83.537,22.033c-1.966,0.719-2.973,2.541-2.973,4.603l-0.048,13.952H74.14V15.561h6.424v4.411
		c0.815-1.726,2.109-2.972,3.596-3.691c1.726-0.863,3.692-1.103,5.706-1.007v6.089C87.325,21.362,85.119,21.41,83.537,22.033z"/>
	<path fill="#757575" d="M100.223,12.78c-1.63,0.144-3.164-0.575-3.979-2.014c-0.863-1.582-0.576-3.548,0.575-4.89
		c0.959-1.103,2.109-1.534,3.26-1.438c1.198,0.096,2.349,0.767,3.164,1.966c0.767,1.151,0.911,2.973,0.24,4.267
		C102.859,11.869,101.565,12.685,100.223,12.78z M96.627,40.587V15.609h6.329v24.979H96.627z"/>
	<path fill="#757575" d="M127.503,40.635v-18.17c0-1.678-0.527-2.925-1.391-3.596c-0.958-0.767-2.397-0.863-4.123-0.192
		c-1.87,0.671-3.452,1.726-4.938,2.973v18.985h-6.376V15.609h6.376v2.589c2.109-1.534,4.938-2.637,7.767-2.924
		c2.781-0.24,5.082,0.24,6.664,1.63c1.534,1.294,2.397,3.356,2.397,6.185v17.547H127.503z"/>
	<path fill="#757575" d="M162.935,46.628c-0.959,1.583-2.445,2.829-4.698,3.692c-2.685,1.055-5.897,1.438-8.87,1.007
		c-2.589-0.384-4.698-1.247-6.329-2.685c-1.63-1.486-2.732-3.548-3.212-6.232h6.28c0.096,1.966,0.767,3.74,1.966,4.89
		c1.055,1.007,2.445,1.63,4.219,1.582c1.774-0.048,3.117-0.623,4.075-1.678c1.007-1.103,1.486-2.733,1.486-4.651v-3.787
		c-1.965,1.342-4.123,2.301-6.664,2.445c-1.966,0.096-4.027-0.383-5.801-1.294c-1.774-0.959-3.308-2.445-4.171-4.411
		c-1.15-2.493-1.63-5.609-1.342-8.63c0.24-2.876,1.247-5.705,3.068-7.767c1.199-1.391,2.733-2.397,4.363-3.021
		c1.87-0.671,3.931-0.911,5.945-0.527c1.63,0.335,3.212,1.007,4.603,1.87v-1.822h6.424v25.026
		C164.277,42.984,163.894,44.998,162.935,46.628z M157.853,20.547c-1.247-0.863-2.637-1.534-4.123-1.87
		c-1.438-0.288-2.733-0.144-3.835,0.432c-1.055,0.527-1.966,1.486-2.493,2.733c-1.582,3.644-1.582,7.91-0.623,11.65
		c0.383,1.582,1.007,3.068,2.445,3.979c1.103,0.719,2.733,0.767,3.979,0.431c1.534-0.383,3.26-1.294,4.65-2.541V20.547z"/>
	<path fill="#757575" d="M195.828,49.984c-0.767,1.055-1.966,1.582-3.452,1.582h-8.438v-3.068h4.938
		c0.863,0,1.391-0.767,1.391-1.294V15.561h6.616v30.396C196.882,47.683,196.499,49.025,195.828,49.984z M197.362,10.527
		c-0.767,1.342-2.158,2.11-3.596,2.11c-1.486-0.048-2.973-1.007-3.596-2.445c-0.527-1.199-0.383-2.876,0.384-3.931
		c0.863-1.151,2.109-1.774,3.452-1.774c1.486,0.048,2.78,0.911,3.452,2.253C198.033,7.842,197.985,9.472,197.362,10.527z"/>
	<path fill="#757575" d="M225.313,36.368c-1.822,2.35-4.315,3.692-7.048,4.267c-2.589,0.527-5.897,0.335-8.342-0.719
		c-2.685-1.198-4.746-3.644-5.849-6.376c-0.958-2.445-1.198-5.226-0.719-7.863c0.527-3.116,2.109-6.041,4.603-7.958
		c1.87-1.438,4.315-2.253,6.808-2.445c2.397-0.192,4.794,0.24,6.712,1.294c2.829,1.534,4.794,4.027,5.705,7.047
		c0.575,1.822,0.815,3.788,0.671,5.753C227.71,31.958,226.848,34.451,225.313,36.368z M217.594,18.39
		c-1.198-0.527-2.637-0.575-4.075,0.144c-1.486,0.719-2.445,2.013-3.068,3.404c-1.486,3.356-1.438,9.349,0,12.561
		c0.719,1.63,1.918,2.781,3.308,3.26c1.294,0.479,2.685,0.383,3.884-0.144c1.342-0.575,2.493-1.726,2.972-3.548
		c1.055-3.788,1.391-8.486,0.096-12.273C220.135,20.211,219.033,18.965,217.594,18.39z"/>
	<path fill="#757575" d="M243.39,18.725v16.253c0,1.15,0.432,2.062,1.151,2.493c0.623,0.383,1.486,0.479,2.445,0.144
		c1.438-0.479,2.589-1.774,3.308-3.021l0.527,0.24c-0.576,1.918-1.918,3.788-3.26,4.794s-2.637,1.39-4.267,1.342
		c-1.726-0.048-3.212-0.671-4.315-1.678c-1.15-1.055-1.822-2.589-1.822-4.507V18.725h-4.746v-2.781h4.746V4.87h6.232v11.075h7.479
		v2.781H243.39z"/>
	<path fill="#757575" d="M288.747,40.635v-2.157c-1.39,1.103-3.116,1.87-4.938,2.205c-2.637,0.479-5.13,0.144-7.24-0.911
		c-2.589-1.343-4.603-3.74-5.465-7.048c-0.719-2.829-0.479-6.904,0.432-9.588c0.815-2.445,2.253-4.411,4.075-5.753
		c1.965-1.438,4.363-2.206,7.047-2.109c2.685,0.048,4.747,1.103,6.089,2.109V4.87h6.424v35.766H288.747z M288.747,20.691
		c-1.103-1.055-2.397-1.966-3.835-2.349c-1.582-0.432-3.021-0.192-4.171,0.527c-1.151,0.671-2.014,1.774-2.589,3.212
		c-1.151,2.733-1.247,8.198-0.432,11.171c0.623,2.206,1.87,3.74,3.5,4.411c1.198,0.479,2.589,0.479,4.123-0.096
		c1.15-0.479,2.349-1.247,3.404-2.397V20.691z"/>
	<path fill="#757575" d="M323.125,36.368c-1.822,2.35-4.315,3.692-7.048,4.267c-2.589,0.527-5.897,0.335-8.342-0.719
		c-2.685-1.198-4.746-3.644-5.849-6.376c-0.958-2.445-1.198-5.226-0.719-7.863c0.527-3.116,2.109-6.041,4.603-7.958
		c1.87-1.438,4.315-2.253,6.808-2.445c2.397-0.192,4.794,0.24,6.712,1.294c2.829,1.534,4.794,4.027,5.705,7.047
		c0.575,1.822,0.815,3.788,0.671,5.753C325.522,31.958,324.659,34.451,323.125,36.368z M315.406,18.39
		c-1.198-0.527-2.637-0.575-4.075,0.144c-1.486,0.719-2.445,2.013-3.068,3.404c-1.486,3.356-1.438,9.349,0,12.561
		c0.719,1.63,1.918,2.781,3.308,3.26c1.294,0.479,2.685,0.383,3.884-0.144c1.342-0.575,2.493-1.726,2.972-3.548
		c1.055-3.788,1.391-8.486,0.096-12.273C317.947,20.211,316.844,18.965,315.406,18.39z"/>
	<path fill="#757575" d="M361.817,40.587h-6.089l-6.232-18.218l-5.657,18.218h-5.801l-8.006-25.026h6.472l6.232,19.369l5.993-19.369
		h5.082l6.856,19.896l6.137-19.896h2.685L361.817,40.587z"/>
	<path fill="#757575" d="M391.113,40.635v-18.17c0-1.678-0.527-2.925-1.391-3.596c-0.958-0.767-2.397-0.863-4.123-0.192
		c-1.87,0.671-3.452,1.726-4.938,2.973v18.985h-6.376V15.609h6.376v2.589c2.109-1.534,4.938-2.637,7.767-2.924
		c2.781-0.24,5.082,0.24,6.664,1.63c1.534,1.294,2.397,3.356,2.397,6.185v17.547H391.113z"/>
	<path fill="#757575" d="M424.005,12.78c-1.63,0.144-3.164-0.575-3.979-2.014c-0.863-1.582-0.576-3.548,0.575-4.89
		c0.959-1.103,2.109-1.534,3.26-1.438c1.198,0.096,2.349,0.767,3.164,1.966c0.767,1.151,0.911,2.973,0.24,4.267
		C426.642,11.869,425.347,12.685,424.005,12.78z M420.409,40.587V15.609h6.329v24.979H420.409z"/>
	<path fill="#757575" d="M451.286,40.635v-18.17c0-1.678-0.527-2.925-1.391-3.596c-0.958-0.767-2.397-0.863-4.123-0.192
		c-1.87,0.671-3.452,1.726-4.938,2.973v18.985h-6.376V15.609h6.376v2.589c2.109-1.534,4.938-2.637,7.767-2.924
		c2.781-0.24,5.082,0.24,6.664,1.63c1.534,1.294,2.397,3.356,2.397,6.185v17.547H451.286z"/>
	<path fill="#757575" d="M508.341,40.587V21.314c0-1.006-0.336-1.774-0.911-2.253c-0.671-0.527-1.582-0.671-2.589-0.479
		c-2.157,0.479-3.788,2.349-4.794,3.644v18.362h-6.328V20.739c0-0.767-0.432-1.39-0.911-1.726c-0.671-0.479-1.486-0.575-2.349-0.383
		c-1.726,0.335-3.788,1.822-4.89,3.164v18.794h-6.329V15.561h6.329v2.637c1.438-1.294,3.212-2.253,5.082-2.685
		c1.965-0.479,3.979-0.432,5.849,0.335c1.343,0.575,2.589,1.822,3.117,3.212c1.246-1.391,2.78-2.493,4.458-3.117
		c1.966-0.767,4.507-0.911,6.472,0.048c1.534,0.719,2.877,2.205,3.452,3.787c0.575,1.486,0.623,3.596,0.623,5.178v15.629H508.341z"
		/>
	<path fill="#757575" d="M525.507,12.78c-1.63,0.144-3.164-0.575-3.979-2.014c-0.863-1.582-0.576-3.548,0.575-4.89
		c0.959-1.103,2.109-1.534,3.26-1.438c1.198,0.096,2.349,0.767,3.164,1.966c0.767,1.151,0.911,2.973,0.24,4.267
		C528.145,11.869,526.85,12.685,525.507,12.78z M521.912,40.587V15.609h6.329v24.979H521.912z"/>
	<path fill="#757575" d="M552.788,40.635v-18.17c0-1.678-0.527-2.925-1.391-3.596c-0.958-0.767-2.397-0.863-4.123-0.192
		c-1.87,0.671-3.452,1.726-4.938,2.973v18.985h-6.376V15.609h6.376v2.589c2.109-1.534,4.938-2.637,7.767-2.924
		c2.781-0.24,5.082,0.24,6.664,1.63c1.534,1.294,2.397,3.356,2.397,6.185v17.547H552.788z"/>
	<path fill="#757575" d="M582.85,40.635v-2.157c-1.39,1.103-3.116,1.87-4.938,2.205c-2.637,0.479-5.13,0.144-7.239-0.911
		c-2.589-1.343-4.603-3.74-5.466-7.048c-0.719-2.829-0.479-6.904,0.432-9.588c0.815-2.445,2.253-4.411,4.075-5.753
		c1.965-1.438,4.363-2.206,7.047-2.109c2.685,0.048,4.747,1.103,6.089,2.109V4.87h6.424v35.766H582.85z M582.85,20.691
		c-1.103-1.055-2.397-1.966-3.835-2.349c-1.582-0.432-3.021-0.192-4.171,0.527c-1.151,0.671-2.014,1.774-2.589,3.212
		c-1.151,2.733-1.247,8.198-0.432,11.171c0.623,2.206,1.87,3.74,3.5,4.411c1.198,0.479,2.589,0.479,4.123-0.096
		c1.15-0.479,2.349-1.247,3.404-2.397V20.691z"/>
</g>
<g>
	<path fill="#757575" d="M613.841,50.813h-5.83c3.054-4.164,3.979-7.865,4.534-11.566h-4.349v-8.791h9.16
		C618.098,38.877,617.265,43.967,613.841,50.813z"/>
</g>
<g>
	<path fill="#757575" d="M633.841,50.813h-5.83c3.054-4.164,3.979-7.865,4.534-11.566h-4.349v-8.791h9.16
		C638.098,38.877,637.265,43.967,633.841,50.813z"/>
</g>
</svg>
