<?xml version="1.0" encoding="utf-8"?>
<!-- Generator: Adobe Illustrator 16.0.0, SVG Export Plug-In . SVG Version: 6.00 Build 0)  -->
<!DOCTYPE svg PUBLIC "-//W3C//DTD SVG 1.1//EN" "http://www.w3.org/Graphics/SVG/1.1/DTD/svg11.dtd">
<svg version="1.1" id="圖層_1" xmlns="http://www.w3.org/2000/svg" xmlns:xlink="http://www.w3.org/1999/xlink" x="0px" y="0px"
	 width="700px" height="160px" viewBox="0 0 700 160" enable-background="new 0 0 700 160" xml:space="preserve">
<g>
	<path fill="#535353" d="M110.729,46.92l-8.182,6.159c-5.131-6.843-11.152-12.094-18.063-15.752s-13.994-5.488-21.25-5.488
		c-8.137,0-15.947,2.23-23.436,6.691S26.428,48.915,22.152,56.302s-6.414,15.305-6.414,23.753c0,11.47,4.01,21.229,12.029,29.276
		c8.02,8.048,17.785,12.071,29.295,12.071c6.887,0,13.498-1.439,19.83-4.319c6.332-2.878,11.463-6.701,15.393-11.469
		s6.795-10.667,8.598-17.701H63.512V77.647h49.645c-1.018,15.955-6.623,28.887-16.814,38.799
		c-10.193,9.912-22.893,14.868-38.1,14.868c-15.625,0-28.313-4.838-38.066-14.515c-9.754-9.675-14.629-21.83-14.629-36.462
		c0-10.431,2.564-20.166,7.695-29.206c5.131-9.037,12.191-16.165,21.182-21.381c8.99-5.215,18.688-7.824,29.088-7.824
		C82.324,21.927,98.063,30.259,110.729,46.92z"/>
	<path fill="#535353" d="M141.518,51.663h9.725l-1.314,9.695c2.592-3.68,5.715-6.547,9.371-8.599
		c3.658-2.052,7.406-3.079,11.248-3.079c2.73,0,5.576,0.662,8.539,1.982l-4.576,9.063c-2.4-0.99-4.408-1.486-6.023-1.486
		c-3.369,0-6.703,1.205-10.004,3.611c-3.299,2.409-5.975,5.914-8.029,10.518s-3.791,12.169-5.215,22.696l-4.41,32.63h-9.516
		L141.518,51.663z"/>
	<path fill="#535353" d="M261.033,128.694h-9.779l1.49-11.581c-8.717,9.042-18.691,13.563-29.922,13.563
		c-10.221,0-18.621-3.373-25.203-10.124c-6.584-6.749-9.875-15.435-9.875-26.055c0-12.272,4.291-22.81,12.875-31.612
		c8.582-8.803,18.682-13.205,30.295-13.205c6.293,0,11.809,1.344,16.551,4.029c4.744,2.686,8.732,6.88,11.967,12.582l1.746-14.629
		h10.059L261.033,128.694z M223.906,121.614c6.215,0,11.881-1.498,16.992-4.498c5.111-3.001,9.162-7.311,12.156-12.933
		c2.992-5.621,4.49-11.739,4.49-18.353c0-7.967-2.465-14.451-7.391-19.449c-4.928-4.998-11.328-7.496-19.203-7.496
		c-9.256,0-17.176,3.422-23.762,10.266c-6.584,6.844-9.877,15.246-9.877,25.205c0,8.166,2.465,14.751,7.391,19.754
		C209.631,119.113,216.031,121.614,223.906,121.614z"/>
	<path fill="#535353" d="M303.469,51.663h9.846l-1.508,11.573c8.715-9.036,18.672-13.556,29.877-13.556
		c10.281,0,18.707,3.375,25.275,10.125c6.57,6.75,9.855,15.435,9.855,26.055c0,12.273-4.268,22.811-12.803,31.613
		s-18.594,13.203-30.174,13.203c-6.273,0-11.789-1.357-16.541-4.069c-4.75-2.713-8.787-6.925-12.109-12.634l-5.6,42.9h-10.055
		L303.469,51.663z M340.598,58.743c-6.184,0-11.848,1.5-16.992,4.496c-5.146,2.997-9.219,7.304-12.217,12.92
		c-3,5.617-4.5,11.729-4.5,18.336c0,7.979,2.48,14.469,7.441,19.473c4.959,5.004,11.363,7.506,19.207,7.506
		c9.275,0,17.211-3.422,23.811-10.267c6.6-6.843,9.898-15.245,9.898-25.205c0-8.165-2.457-14.75-7.371-19.753
		S348.535,58.743,340.598,58.743z"/>
	<path fill="#535353" d="M411.473,21.927h9.516l-5.498,41.508c7.816-9.169,16.719-13.754,26.713-13.754
		c7.633,0,13.865,2.432,18.699,7.293s7.252,11.187,7.252,18.975c0,4.295-0.482,10.082-1.447,17.357l-4.686,35.389h-9.516
		l4.635-35.388c0.934-7.132,1.389-12.8,1.365-17.001c0-5.287-1.619-9.559-4.859-12.817c-3.24-3.257-7.498-4.886-12.773-4.886
		c-4.906,0-9.547,1.345-13.92,4.035c-4.375,2.69-7.752,6.323-10.137,10.9c-2.383,4.578-4.234,11.848-5.553,21.809l-4.418,33.348
		h-9.516L411.473,21.927z"/>
	<path fill="#535353" d="M500.781,51.663h9.166l-9.854,77.031h-9.516L500.781,51.663z M508.398,19.944
		c2.125,0,3.951,0.779,5.477,2.337s2.289,3.423,2.289,5.593c0,2.22-0.764,4.096-2.289,5.629c-1.525,1.535-3.352,2.301-5.477,2.301
		c-2.174,0-4.012-0.766-5.514-2.301c-1.502-1.533-2.252-3.409-2.252-5.629c0-2.17,0.75-4.035,2.252-5.593
		S506.225,19.944,508.398,19.944z"/>
	<path fill="#535353" d="M609.621,68.302l-7.975,4.744c-5.586-9.251-14.127-13.877-25.625-13.877
		c-6.648,0-12.721,1.511-18.215,4.531c-5.496,3.021-9.789,7.221-12.883,12.602s-4.639,11.141-4.639,17.275
		c0,5.429,1.152,10.291,3.463,14.586c2.307,4.295,5.551,7.6,9.729,9.912s9.107,3.469,14.787,3.469c5.816,0,11.367-1.18,16.654-3.54
		c5.285-2.36,9.406-5.404,12.361-9.134l7.973,5.735c-4.992,5.569-10.412,9.642-16.26,12.214c-5.848,2.571-12.631,3.857-20.35,3.857
		c-11.926,0-21.229-3.314-27.908-9.947c-6.68-6.631-10.018-15.47-10.018-26.515c0-12.272,4.379-22.763,13.139-31.472
		c8.76-8.707,19.494-13.063,32.207-13.063c7.627,0,14.352,1.641,20.176,4.922C602.063,57.883,606.523,62.45,609.621,68.302z"/>
</g>
</svg>
