<?xml version="1.0" encoding="utf-8"?>
<!-- Generator: Adobe Illustrator 16.0.0, SVG Export Plug-In . SVG Version: 6.00 Build 0)  -->
<!DOCTYPE svg PUBLIC "-//W3C//DTD SVG 1.1//EN" "http://www.w3.org/Graphics/SVG/1.1/DTD/svg11.dtd">
<svg version="1.1" id="圖層_1" xmlns="http://www.w3.org/2000/svg" xmlns:xlink="http://www.w3.org/1999/xlink" x="0px" y="0px"
	 width="535.823px" height="191.106px" viewBox="0 0 535.823 191.106" enable-background="new 0 0 535.823 191.106"
	 xml:space="preserve">
<g>
	<g>
		<path fill="#3F3F3F" d="M112.09,59.866l-8.354,6.16c-5.239-6.843-11.388-12.095-18.444-15.753
			c-7.057-3.658-14.291-5.487-21.7-5.487c-8.308,0-16.284,2.23-23.931,6.69c-7.646,4.461-13.653,10.385-18.019,17.771
			C17.276,76.634,15.093,84.552,15.093,93c0,11.47,4.094,21.229,12.284,29.276c8.189,8.048,18.161,12.072,29.914,12.072
			c7.033,0,13.782-1.439,20.249-4.319c6.466-2.878,11.706-6.702,15.718-11.47c4.011-4.767,6.938-10.667,8.779-17.7H63.875V90.593
			h50.693c-1.039,15.955-6.762,28.887-17.169,38.799c-10.408,9.912-23.376,14.868-38.905,14.868
			c-15.955,0-28.911-4.838-38.87-14.514c-9.959-9.675-14.939-21.83-14.939-36.462c0-10.431,2.62-20.166,7.859-29.206
			c5.239-9.038,12.449-16.166,21.629-21.382c9.18-5.215,19.081-7.823,29.701-7.823C83.085,34.873,99.157,43.204,112.09,59.866z"/>
		<path fill="#3F3F3F" d="M210.356,141.641h-9.986l1.523-11.582c-8.901,9.042-19.086,13.564-30.555,13.564
			c-10.437,0-19.014-3.374-25.736-10.125c-6.722-6.75-10.083-15.435-10.083-26.055c0-12.272,4.382-22.809,13.146-31.613
			c8.764-8.802,19.077-13.204,30.936-13.204c6.425,0,12.059,1.343,16.902,4.029c4.843,2.686,8.917,6.88,12.22,12.582l1.781-14.628
			h10.272L210.356,141.641z M172.444,134.561c6.348,0,12.132-1.499,17.352-4.499c5.22-3,9.357-7.311,12.414-12.932
			c3.056-5.621,4.584-11.739,4.584-18.352c0-7.967-2.516-14.451-7.547-19.449s-11.567-7.497-19.607-7.497
			c-9.452,0-17.54,3.423-24.264,10.266c-6.724,6.844-10.086,15.247-10.086,25.205c0,8.167,2.516,14.751,7.547,19.753
			C157.868,132.059,164.404,134.561,172.444,134.561z"/>
		<path fill="#3F3F3F" d="M251.554,34.873h9.645L246.83,141.641h-9.716L251.554,34.873z"/>
		<path fill="#3F3F3F" d="M286.382,34.873h9.645l-14.369,106.768h-9.716L286.382,34.873z"/>
		<path fill="#3F3F3F" d="M388.333,105.107h-68.677c-0.142,9.158,2.241,16.355,7.151,21.594c4.909,5.239,11.445,7.859,19.612,7.859
			c5.427,0,10.454-1.108,15.081-3.328c4.625-2.218,8.449-5.333,11.47-9.346l7.363,6.018c-3.729,4.768-8.602,8.579-14.621,11.435
			c-6.018,2.855-12.521,4.283-19.505,4.283c-12.083,0-21.158-3.74-27.223-11.222c-6.065-7.481-9.098-15.895-9.098-25.241
			c0-7.646,2.041-15.01,6.124-22.09c4.083-7.08,9.546-12.59,16.391-16.532c6.843-3.941,14.254-5.912,22.231-5.912
			c9.865,0,18.03,3.34,24.497,10.019c6.466,6.679,9.7,15.187,9.7,25.523C388.828,100.057,388.662,102.371,388.333,105.107z
			 M379.27,96.47c-0.283-7.247-2.761-13.118-7.434-17.613s-10.549-6.743-17.629-6.743c-7.694,0-14.479,2.165-20.355,6.495
			c-5.876,4.33-10.042,10.284-12.496,17.861H379.27z"/>
		<path fill="#3F3F3F" d="M415.172,64.609h9.93l-1.341,9.694c2.646-3.68,5.835-6.546,9.569-8.598
			c3.733-2.052,7.561-3.079,11.484-3.079c2.788,0,5.695,0.662,8.72,1.982l-4.673,9.063c-2.452-0.991-4.501-1.487-6.15-1.487
			c-3.44,0-6.845,1.205-10.215,3.612c-3.37,2.409-6.103,5.914-8.2,10.518c-2.098,4.603-3.872,12.168-5.325,22.696l-4.503,32.63
			h-9.716L415.172,64.609z"/>
		<path fill="#3F3F3F" d="M458.555,64.609h10.201l19.914,56.877l33.111-56.877h11.042l-61.162,105.21h-11.124l21.819-37.486
			L458.555,64.609z"/>
	</g>
</g>
</svg>
